<svg width="590" height="158" viewBox="0 0 590 158" fill="none" xmlns="http://www.w3.org/2000/svg">
<path d="M26.0409 76.6282C20.5084 76.6282 15.7709 75.579 11.8281 73.4804C7.94899 71.3819 4.99197 68.4884 2.95702 64.8001C0.985682 61.1119 0 56.8511 0 52.0182C0 49.8561 0.190776 47.6303 0.572327 45.341C1.6534 39.427 4.00629 34.1488 7.63103 29.5066C11.2558 24.8645 15.7071 21.2714 20.9853 18.7278C26.2635 16.1205 31.8595 14.8169 37.7736 14.8169C40.4444 14.8169 43.0518 15.1031 45.5954 15.6754C48.2027 16.1842 50.2694 16.8836 51.7956 17.7739C52.1771 18.0282 52.3998 18.2827 52.4633 18.537C52.5268 18.7913 52.5268 19.2683 52.4633 19.9679L51.1279 32.0821C51.0644 32.2729 50.8736 32.3683 50.5556 32.3683C50.2375 32.3683 50.0786 32.2729 50.0786 32.0821C49.1883 27.3127 47.3442 23.6245 44.5461 21.0171C41.8117 18.4098 38.2187 17.1062 33.7673 17.1062C27.5989 17.1062 22.4161 19.332 18.2191 23.7834C14.0856 28.1712 11.383 34.1806 10.1111 41.8117C9.66597 44.546 9.4434 47.3442 9.4434 50.2058C9.4434 57.7733 11.1922 63.7509 14.6897 68.1387C18.1872 72.5265 22.9566 74.7205 28.9979 74.7205C31.2872 74.7205 33.0996 74.4024 34.435 73.7666C35.834 73.1307 36.9151 72.0177 37.6782 70.428C38.5048 68.7746 39.109 66.4536 39.4906 63.4647C39.8721 61.1754 40.0629 59.363 40.0629 58.0276C40.0629 56.6286 39.8086 55.611 39.2998 54.9752C38.791 54.2756 37.9325 53.8305 36.7243 53.6398C35.5797 53.3855 33.8308 53.2582 31.478 53.2582C31.3507 53.2582 31.2237 53.1947 31.0964 53.0674C31.0329 52.8767 31.001 52.6859 31.001 52.4951C31.001 52.3043 31.0329 52.1454 31.0964 52.0182C31.2237 51.8274 31.3507 51.732 31.478 51.732C36.0566 52.05 39.8086 52.2089 42.7337 52.2089C45.5954 52.2089 48.5843 52.1136 51.7002 51.9228C51.891 51.9228 51.9864 52.1454 51.9864 52.5905C52.0499 53.0356 51.9545 53.2582 51.7002 53.2582C50.6828 53.1947 49.9514 53.4171 49.5063 53.9259C49.0612 54.371 48.6797 55.2613 48.3616 56.5968C48.1073 57.8687 47.6939 60.4758 47.1216 64.4186C46.6765 67.0259 46.422 68.9972 46.3585 70.3326C46.3585 71.6045 46.295 72.4312 46.1677 72.8127C46.1042 73.1943 46.0088 73.4486 45.8815 73.5758C45.7543 73.7031 45.5 73.8301 45.1184 73.9574C37.8054 75.7379 31.4461 76.6282 26.0409 76.6282ZM57.0263 75.4836C56.8355 75.4836 56.7401 75.2928 56.7401 74.9112C56.7401 74.5297 56.8355 74.3389 57.0263 74.3389C58.8705 74.3389 60.2376 74.18 61.128 73.862C62.0183 73.5439 62.686 72.94 63.1311 72.0496C63.6399 71.0957 64.0531 69.6649 64.3712 67.7572L72.193 23.5926C72.4473 21.9391 72.5745 20.9217 72.5745 20.5402C72.5745 19.1412 72.1611 18.219 71.3345 17.7739C70.5714 17.2651 69.1405 17.0108 67.042 17.0108C66.8512 17.0108 66.7559 16.8201 66.7559 16.4385C66.7559 16.0569 66.8512 15.8662 67.042 15.8662L71.4299 15.9616C73.8464 16.0888 75.7858 16.1523 77.2485 16.1523C79.1563 16.1523 81.3183 16.0888 83.7349 15.9616L87.7412 15.8662C87.932 15.8662 88.0273 16.0569 88.0273 16.4385C88.0273 16.8201 87.932 17.0108 87.7412 17.0108C85.8969 17.0108 84.5299 17.2016 83.6395 17.5832C82.7491 17.9647 82.0498 18.6324 81.541 19.5863C81.0959 20.4767 80.7143 21.8756 80.3963 23.7834L72.5745 67.7572C72.3202 68.9653 72.193 70.0465 72.193 71.0003C72.193 72.3358 72.5745 73.2261 73.3376 73.6712C74.1642 74.1163 75.6269 74.3389 77.7255 74.3389C77.8527 74.3389 77.9162 74.5297 77.9162 74.9112C77.9162 75.2928 77.8527 75.4836 77.7255 75.4836C76.0085 75.4836 74.6412 75.4517 73.6238 75.3882L67.3282 75.2928L61.4141 75.3882C60.3967 75.4517 58.9341 75.4836 57.0263 75.4836ZM87.2784 75.4836C87.1512 75.4836 87.0877 75.2928 87.0877 74.9112C87.0877 74.5297 87.1512 74.3389 87.2784 74.3389C89.1225 74.3389 90.4898 74.18 91.3801 73.862C92.334 73.5439 93.0334 72.94 93.4787 72.0496C93.9237 71.1593 94.3371 69.7284 94.7187 67.7572L102.54 23.5926C102.795 21.9391 102.922 20.9217 102.922 20.5402C102.922 19.1412 102.509 18.219 101.682 17.7739C100.919 17.2651 99.4881 17.0108 97.3896 17.0108C97.2623 17.0108 97.1988 16.8201 97.1988 16.4385C97.1988 16.0569 97.2623 15.8662 97.3896 15.8662L101.682 15.9616C104.098 16.0888 106.038 16.1523 107.501 16.1523C109.027 16.1523 111.062 16.0888 113.605 15.9616L117.993 15.8662C118.12 15.8662 118.184 16.0569 118.184 16.4385C118.184 16.8201 118.12 17.0108 117.993 17.0108C116.149 17.0108 114.75 17.2016 113.796 17.5832C112.906 17.9012 112.238 18.537 111.793 19.4909C111.348 20.3813 110.935 21.7802 110.553 23.688L102.827 67.3756C102.636 68.5838 102.54 69.5695 102.54 70.3326C102.54 71.6045 102.858 72.463 103.494 72.9081C104.13 73.3532 105.275 73.5758 106.928 73.5758H111.793C116.054 73.5758 119.774 72.4312 122.953 70.1419C126.133 67.8525 128.931 64.3867 131.348 59.7446C131.348 59.6811 131.475 59.6492 131.729 59.6492C132.238 59.6492 132.46 59.7764 132.397 60.0307C130.934 65.3089 129.853 69.9829 129.154 74.0527C129.026 74.5616 128.836 74.9431 128.581 75.1974C128.391 75.3882 128.073 75.4836 127.628 75.4836H87.2784ZM135.159 75.4836C135.031 75.4836 134.968 75.2928 134.968 74.9112C134.968 74.5297 135.031 74.3389 135.159 74.3389C137.003 74.3389 138.37 74.18 139.26 73.862C140.214 73.5439 140.914 72.94 141.359 72.0496C141.804 71.1593 142.217 69.7284 142.599 67.7572L150.421 23.5926C150.675 21.9391 150.802 20.9217 150.802 20.5402C150.802 19.1412 150.389 18.219 149.562 17.7739C148.799 17.2651 147.368 17.0108 145.27 17.0108C145.143 17.0108 145.079 16.8201 145.079 16.4385C145.079 16.0569 145.143 15.8662 145.27 15.8662L149.562 15.9616C151.979 16.0888 153.918 16.1523 155.381 16.1523C156.907 16.1523 158.942 16.0888 161.486 15.9616L165.874 15.8662C166.001 15.8662 166.064 16.0569 166.064 16.4385C166.064 16.8201 166.001 17.0108 165.874 17.0108C164.029 17.0108 162.63 17.2016 161.676 17.5832C160.786 17.9012 160.118 18.537 159.673 19.4909C159.228 20.3813 158.815 21.7802 158.433 23.688L150.707 67.3756C150.516 68.5838 150.421 69.5695 150.421 70.3326C150.421 71.6045 150.739 72.463 151.375 72.9081C152.01 73.3532 153.155 73.5758 154.809 73.5758H159.673C163.934 73.5758 167.654 72.4312 170.834 70.1419C174.013 67.8525 176.811 64.3867 179.228 59.7446C179.228 59.6811 179.355 59.6492 179.609 59.6492C180.118 59.6492 180.341 59.7764 180.277 60.0307C178.814 65.3089 177.733 69.9829 177.034 74.0527C176.907 74.5616 176.716 74.9431 176.462 75.1974C176.271 75.3882 175.953 75.4836 175.508 75.4836H135.159ZM212.228 76.6282C203.515 76.6282 197.124 74.3389 193.055 69.7603C189.048 65.1182 187.045 59.3312 187.045 52.3997C187.045 50.4284 187.268 48.1073 187.713 45.4364C188.794 39.2681 191.147 33.8626 194.772 29.2205C198.397 24.5783 202.721 21.0171 207.745 18.537C212.768 16.057 217.951 14.8169 223.293 14.8169C225.901 14.8169 228.539 15.1031 231.21 15.6754C233.881 16.2477 235.947 16.9473 237.41 17.7739C237.792 18.0282 238.015 18.2827 238.078 18.537C238.206 18.7913 238.236 19.2683 238.173 19.9679L236.838 32.0821C236.775 32.2729 236.584 32.3683 236.266 32.3683C236.012 32.3683 235.851 32.2729 235.789 32.0821C234.898 27.2492 233.022 23.5607 230.161 21.0171C227.362 18.4735 223.802 17.2016 219.477 17.2016C213.754 17.2016 208.889 19.4591 204.883 23.9741C200.877 28.4892 198.269 34.6576 197.061 42.4794C196.679 45.1502 196.489 47.7576 196.489 50.3012C196.489 54.9433 197.124 59.1404 198.397 62.8924C199.732 66.6444 201.64 69.6014 204.12 71.7634C206.6 73.862 209.494 74.9112 212.8 74.9112C219.605 74.9112 226.313 70.11 232.927 60.5077C232.99 60.3804 233.118 60.3169 233.308 60.3169C233.499 60.3169 233.658 60.3804 233.785 60.5077C233.976 60.5712 234.039 60.6666 233.976 60.7938L231.305 71.5727C231.115 72.3358 230.924 72.8762 230.733 73.1943C230.542 73.4486 230.161 73.6393 229.588 73.7666C223.865 75.6743 218.079 76.6282 212.228 76.6282ZM286.908 15.8662C287.416 15.8662 287.607 16.1523 287.481 16.7247L285.478 29.2205C285.478 29.4112 285.35 29.5066 285.096 29.5066C284.905 29.5066 284.714 29.4748 284.524 29.4112C284.396 29.284 284.333 29.1886 284.333 29.1251C284.333 25.6276 283.347 22.8614 281.376 20.8263C279.468 18.7278 276.923 17.6785 273.745 17.6785H270.025C268.117 17.6785 266.717 17.8375 265.828 18.1555C264.937 18.4098 264.301 18.9504 263.92 19.7771C263.538 20.6037 263.187 21.9075 262.871 23.688L259.437 43.2425H271.074C273.808 43.2425 275.906 42.702 277.37 41.6209C278.831 40.5398 279.817 38.7274 280.327 36.1838C280.389 35.8658 280.613 35.7387 280.994 35.8022C281.376 35.8022 281.534 35.9611 281.471 36.2792L280.613 41.1439C280.422 42.0343 280.199 43.1471 279.945 44.4825C279.689 45.7544 279.468 47.2169 279.277 48.8704C279.149 49.5062 279.022 50.2693 278.896 51.1597C278.768 51.9863 278.61 52.9402 278.419 54.0213C278.354 54.2756 278.133 54.4029 277.751 54.4029C277.37 54.3393 277.209 54.1802 277.274 53.9259C277.4 53.3536 277.465 52.5905 277.465 51.6366C277.465 47.6938 275.111 45.7226 270.406 45.7226H258.96L255.144 67.3756C254.953 68.5203 254.858 69.4741 254.858 70.2372C254.858 71.5727 255.24 72.463 256.003 72.9081C256.766 73.3532 258.132 73.5758 260.104 73.5758H265.255C268.498 73.5758 271.677 72.3993 274.794 70.0465C277.909 67.6936 280.485 64.5458 282.521 60.6031C282.521 60.4758 282.646 60.4123 282.902 60.4123C283.093 60.4123 283.251 60.4758 283.379 60.6031C283.57 60.6666 283.633 60.7303 283.57 60.7938C282.425 64.4821 281.376 68.9018 280.422 74.0527C280.294 74.5616 280.103 74.9431 279.85 75.1974C279.659 75.3882 279.34 75.4836 278.896 75.4836H239.596C239.405 75.4836 239.31 75.2928 239.31 74.9112C239.31 74.5297 239.405 74.3389 239.596 74.3389C241.439 74.3389 242.807 74.18 243.698 73.862C244.587 73.5439 245.254 72.94 245.701 72.0496C246.145 71.1593 246.559 69.7284 246.941 67.7572L254.763 23.5926C255.016 21.9391 255.144 20.9217 255.144 20.5402C255.144 19.1412 254.73 18.219 253.904 17.7739C253.141 17.2651 251.741 17.0108 249.707 17.0108C249.579 17.0108 249.516 16.8201 249.516 16.4385C249.516 16.0569 249.579 15.8662 249.707 15.8662H286.908ZM265.732 10.8106C265.477 10.8106 265.318 10.6834 265.255 10.4291C265.19 10.111 265.255 9.8886 265.446 9.76135C267.48 8.55317 270.278 6.54997 273.84 3.75192C276.765 1.5262 278.354 0.317958 278.61 0.127182C278.926 -0.127179 279.945 -7.92349e-06 281.662 0.508734C283.379 1.01746 284.873 1.58978 286.145 2.22571C287.481 2.86163 287.797 3.24318 287.099 3.37037C283.156 4.32425 279.531 5.4053 276.225 6.61356C272.982 7.75821 269.548 9.1255 265.923 10.7152L265.732 10.8106Z" fill="white"/>
<path d="M162.224 156.665C162.097 156.665 162.033 156.474 162.033 156.092C162.033 155.711 162.097 155.52 162.224 155.52C164.068 155.52 165.436 155.361 166.326 155.043C167.28 154.725 167.979 154.121 168.424 153.231C168.87 152.34 169.283 150.909 169.664 148.938L177.486 104.774C177.741 103.12 177.868 102.103 177.868 101.721C177.868 100.322 177.454 99.4 176.628 98.9549C175.865 98.4461 174.434 98.1918 172.335 98.1918C172.208 98.1918 172.145 98.001 172.145 97.6195C172.145 97.2379 172.208 97.0472 172.335 97.0472L176.628 97.1426C179.044 97.2698 180.984 97.3333 182.446 97.3333C183.973 97.3333 186.008 97.2698 188.551 97.1426L192.939 97.0472C193.066 97.0472 193.13 97.2379 193.13 97.6195C193.13 98.001 193.066 98.1918 192.939 98.1918C191.095 98.1918 189.696 98.3826 188.742 98.7641C187.852 99.0822 187.184 99.718 186.739 100.672C186.294 101.562 185.88 102.961 185.499 104.869L177.772 148.557C177.582 149.765 177.486 150.751 177.486 151.514C177.486 152.786 177.804 153.644 178.44 154.089C179.076 154.534 180.221 154.757 181.874 154.757H186.739C190.999 154.757 194.72 153.612 197.899 151.323C201.08 149.034 203.876 145.568 206.293 140.926C206.293 140.862 206.421 140.83 206.675 140.83C207.184 140.83 207.406 140.957 207.343 141.212C205.879 146.49 204.8 151.164 204.099 155.234C203.972 155.743 203.781 156.124 203.527 156.378C203.336 156.569 203.018 156.665 202.573 156.665H162.224ZM257.99 97.0472C258.497 97.0472 258.688 97.3333 258.562 97.9057L256.559 110.401C256.559 110.592 256.431 110.688 256.177 110.688C255.986 110.688 255.796 110.656 255.605 110.592C255.477 110.465 255.414 110.37 255.414 110.306C255.414 106.809 254.428 104.042 252.457 102.007C250.549 99.9088 248.004 98.8595 244.826 98.8595H241.106C239.198 98.8595 237.798 99.0184 236.909 99.3365C236.018 99.5908 235.383 100.131 235.001 100.958C234.62 101.785 234.268 103.088 233.952 104.869L230.518 124.423H242.155C244.889 124.423 246.987 123.883 248.451 122.802C249.912 121.721 250.898 119.908 251.408 117.365C251.471 117.047 251.694 116.92 252.076 116.983C252.457 116.983 252.615 117.142 252.552 117.46L251.694 122.325C251.503 123.215 251.28 124.328 251.026 125.664C250.771 126.935 250.549 128.398 250.359 130.051C250.231 130.687 250.103 131.45 249.977 132.341C249.849 133.167 249.691 134.121 249.5 135.202C249.435 135.457 249.214 135.584 248.832 135.584C248.451 135.52 248.29 135.361 248.355 135.107C248.481 134.535 248.546 133.771 248.546 132.818C248.546 128.875 246.192 126.904 241.487 126.904H230.041L226.225 148.557C226.035 149.701 225.939 150.655 225.939 151.418C225.939 152.754 226.321 153.644 227.084 154.089C227.847 154.534 229.213 154.757 231.186 154.757H236.337C239.58 154.757 242.758 153.58 245.875 151.227C248.991 148.875 251.566 145.727 253.602 141.784C253.602 141.657 253.728 141.593 253.983 141.593C254.174 141.593 254.332 141.657 254.46 141.784C254.651 141.848 254.714 141.911 254.651 141.975C253.506 145.663 252.457 150.083 251.503 155.234C251.375 155.743 251.185 156.124 250.931 156.378C250.74 156.569 250.421 156.665 249.977 156.665H210.677C210.486 156.665 210.391 156.474 210.391 156.092C210.391 155.711 210.486 155.52 210.677 155.52C212.52 155.52 213.888 155.361 214.779 155.043C215.668 154.725 216.336 154.121 216.782 153.231C217.226 152.34 217.64 150.909 218.022 148.938L225.844 104.774C226.098 103.12 226.225 102.103 226.225 101.721C226.225 100.322 225.811 99.4 224.985 98.9549C224.222 98.4461 222.822 98.1918 220.788 98.1918C220.66 98.1918 220.598 98.001 220.598 97.6195C220.598 97.2379 220.66 97.0472 220.788 97.0472H257.99ZM299.366 157.809C296.948 157.809 294.627 157.555 292.402 157.046C290.176 156.601 287.887 155.774 285.534 154.566C284.897 154.121 284.706 153.517 284.962 152.754L287.442 139.59C287.442 139.272 287.6 139.113 287.919 139.113C288.301 139.113 288.491 139.272 288.491 139.59C290.334 150.401 294.787 155.806 301.846 155.806C304.77 155.806 307.218 154.916 309.19 153.135C311.224 151.355 312.497 148.811 313.006 145.504C313.132 144.36 313.197 143.565 313.197 143.119C313.197 140.004 312.306 137.364 310.526 135.202C308.744 132.977 306.201 130.656 302.895 128.239C300.478 126.395 298.57 124.869 297.172 123.66C295.836 122.452 294.692 121.021 293.738 119.368C292.784 117.651 292.307 115.711 292.307 113.549C292.307 112.659 292.402 111.737 292.593 110.783C293.547 106.014 295.962 102.357 299.842 99.8134C303.784 97.2698 308.237 95.9979 313.197 95.9979C316.822 95.9979 320.477 96.761 324.166 98.2872C325.055 98.7323 325.406 99.273 325.216 99.9088L323.88 111.737C323.815 111.928 323.625 112.023 323.308 112.023C322.989 112.023 322.798 111.928 322.736 111.737C321.972 107.54 320.572 104.169 318.538 101.626C316.566 99.0822 314.055 97.8103 311.003 97.8103C308.649 97.8103 306.71 98.4145 305.184 99.6226C303.658 100.831 302.513 102.325 301.75 104.106C301.05 105.886 300.701 107.603 300.701 109.257C300.701 111.165 301.145 112.913 302.036 114.503C302.925 116.029 304.007 117.365 305.28 118.509C306.55 119.591 308.395 121.053 310.812 122.897C314.5 125.632 317.298 128.175 319.206 130.528C321.177 132.818 322.163 135.616 322.163 138.922C322.163 140.067 322.098 140.926 321.972 141.498C321.144 146.267 318.729 150.178 314.723 153.231C310.78 156.283 305.661 157.809 299.366 157.809ZM337.596 156.665C337.405 156.665 337.31 156.474 337.31 156.092C337.31 155.711 337.405 155.52 337.596 155.52C339.885 155.52 341.602 155.361 342.747 155.043C343.891 154.725 344.719 154.121 345.227 153.231C345.799 152.277 346.276 150.846 346.658 148.938L354.384 104.774C354.575 103.629 354.67 102.675 354.67 101.912C354.67 100.767 354.384 100.004 353.812 99.6226C353.239 99.2411 352.223 99.0503 350.759 99.0503H349.233C345.927 99.0503 342.875 100.386 340.076 103.057C337.279 105.727 335.244 109.225 333.971 113.549C333.908 113.74 333.685 113.804 333.303 113.74C332.987 113.677 332.859 113.549 332.922 113.358C333.431 111.705 334.162 108.812 335.116 104.678C336.135 100.481 336.865 97.2379 337.31 94.9486C337.375 94.7579 337.596 94.6943 337.977 94.7579C338.359 94.7579 338.519 94.8532 338.454 95.044C338.263 96.3795 339.504 97.0472 342.174 97.0472C346.881 97.2379 352.7 97.3333 359.63 97.3333C362.874 97.3333 366.468 97.2698 370.409 97.1426L376.419 97.0472C378.326 97.0472 379.757 96.8883 380.711 96.5702C381.665 96.2522 382.333 95.6164 382.714 94.6625C382.842 94.4717 383.065 94.4082 383.382 94.4717C383.701 94.4717 383.828 94.5989 383.763 94.8532C383.191 96.8245 382.428 100.004 381.474 104.392C380.52 108.78 379.948 111.769 379.757 113.358C379.694 113.613 379.471 113.74 379.089 113.74C378.708 113.677 378.55 113.517 378.613 113.263C378.868 111.483 378.994 110.243 378.994 109.543C378.994 106.3 378.136 103.756 376.419 101.912C374.767 100.004 372.412 99.0503 369.36 99.0503H367.834C365.926 99.0503 364.655 99.4319 364.018 100.195C363.383 100.958 362.874 102.548 362.492 104.964L354.766 148.938C354.512 150.464 354.384 151.45 354.384 151.895C354.384 153.358 354.893 154.343 355.91 154.852C356.929 155.297 358.837 155.52 361.634 155.52C361.761 155.52 361.824 155.711 361.824 156.092C361.824 156.474 361.761 156.665 361.634 156.665C359.535 156.665 357.883 156.633 356.673 156.569L349.519 156.474L342.651 156.569C341.381 156.633 339.694 156.665 337.596 156.665ZM432.005 108.303C432.196 107.158 432.292 106.109 432.292 105.155C432.292 102.929 431.75 101.212 430.67 100.004C429.588 98.796 428.062 98.1918 426.091 98.1918C425.901 98.1918 425.805 98.001 425.805 97.6195C425.868 97.2379 425.963 97.0472 426.091 97.0472L430.098 97.1426C432.259 97.2698 433.944 97.3333 435.153 97.3333C436.298 97.3333 437.887 97.2698 439.923 97.1426L443.547 97.0472C443.801 97.0472 443.896 97.2379 443.833 97.6195C443.833 98.001 443.738 98.1918 443.547 98.1918C441.258 98.1918 439.318 99.1457 437.729 101.053C436.137 102.961 435.058 105.569 434.485 108.875L429.525 137.301C428.381 143.724 425.549 148.779 421.036 152.467C416.583 156.156 411.211 158 404.915 158C399.255 158 394.804 156.537 391.561 153.612C388.318 150.623 386.696 146.553 386.696 141.403C386.696 139.813 386.822 138.287 387.078 136.824L392.801 104.583C393.055 102.929 393.183 101.912 393.183 101.53C393.183 100.131 392.768 99.2411 391.942 98.8595C391.179 98.4145 389.716 98.1918 387.555 98.1918C387.364 98.1918 387.268 98.001 387.268 97.6195C387.268 97.2379 387.331 97.0472 387.459 97.0472L392.038 97.1426C394.581 97.2698 396.584 97.3333 398.047 97.3333C399.764 97.3333 401.958 97.2698 404.629 97.1426L408.731 97.0472C408.922 97.0472 408.984 97.2379 408.922 97.6195C408.922 98.001 408.857 98.1918 408.731 98.1918C406.823 98.1918 405.36 98.4145 404.343 98.8595C403.389 99.2411 402.656 99.9407 402.149 100.958C401.64 101.912 401.226 103.343 400.909 105.251L395.758 134.058C395.376 136.41 395.186 138.604 395.186 140.639C395.186 145.345 396.298 148.875 398.524 151.227C400.749 153.517 403.896 154.661 407.968 154.661C412.991 154.661 417.188 153.072 420.559 149.892C423.928 146.712 426.059 142.356 426.95 136.824L432.005 108.303ZM461.111 157.046C459.522 157.046 457.772 156.951 455.865 156.76C455.101 156.696 454.148 156.633 453.003 156.569C451.858 156.506 450.555 156.474 449.092 156.474L442.987 156.569C441.97 156.633 440.572 156.665 438.79 156.665C438.599 156.665 438.504 156.474 438.504 156.092C438.504 155.711 438.599 155.52 438.79 155.52C440.635 155.52 442.003 155.361 442.892 155.043C443.846 154.725 444.546 154.121 444.99 153.231C445.5 152.277 445.944 150.846 446.326 148.938L454.148 104.774C454.403 103.12 454.529 102.103 454.529 101.721C454.529 100.322 454.117 99.4 453.289 98.9549C452.526 98.4461 451.095 98.1918 448.997 98.1918C448.871 98.1918 448.806 98.001 448.806 97.6195C448.806 97.2379 448.871 97.0472 448.997 97.0472L453.384 97.1426C455.929 97.2698 457.963 97.3333 459.489 97.3333C461.334 97.3333 463.209 97.2379 465.117 97.0472C467.662 96.9199 469.442 96.8564 470.459 96.8564C475.738 96.8564 480.316 97.8421 484.195 99.8134C488.138 101.721 491.158 104.456 493.257 108.017C495.42 111.514 496.5 115.552 496.5 120.131C496.5 121.912 496.309 123.819 495.927 125.854C494.848 131.959 492.526 137.396 488.964 142.166C485.467 146.871 481.238 150.528 476.278 153.135C471.317 155.743 466.262 157.046 461.111 157.046ZM460.634 155.329C464.768 155.329 468.616 154.28 472.176 152.181C475.738 150.019 478.758 146.871 481.238 142.738C483.718 138.604 485.467 133.676 486.484 127.953C486.931 125.536 487.152 122.929 487.152 120.131C487.152 113.835 485.721 108.684 482.859 104.678C480.063 100.608 475.77 98.5734 469.982 98.5734C467.376 98.5734 465.531 99.0503 464.449 100.004C463.37 100.895 462.607 102.548 462.16 104.964L454.624 147.889C454.434 148.906 454.338 149.829 454.338 150.655C454.338 152.245 454.815 153.421 455.769 154.184C456.723 154.948 458.345 155.329 460.634 155.329ZM499.737 156.665C499.546 156.665 499.451 156.474 499.451 156.092C499.451 155.711 499.546 155.52 499.737 155.52C501.582 155.52 502.948 155.361 503.838 155.043C504.729 154.725 505.397 154.121 505.842 153.231C506.351 152.277 506.763 150.846 507.082 148.938L514.904 104.774C515.157 103.12 515.285 102.103 515.285 101.721C515.285 100.322 514.871 99.4 514.045 98.9549C513.282 98.4461 511.851 98.1918 509.753 98.1918C509.562 98.1918 509.466 98.001 509.466 97.6195C509.466 97.2379 509.562 97.0472 509.753 97.0472L514.14 97.1426C516.558 97.2698 518.496 97.3333 519.959 97.3333C521.867 97.3333 524.028 97.2698 526.445 97.1426L530.452 97.0472C530.642 97.0472 530.738 97.2379 530.738 97.6195C530.738 98.001 530.642 98.1918 530.452 98.1918C528.607 98.1918 527.241 98.3826 526.35 98.7641C525.459 99.1457 524.761 99.8134 524.251 100.767C523.807 101.658 523.425 103.057 523.107 104.964L515.285 148.938C515.031 150.146 514.904 151.227 514.904 152.181C514.904 153.517 515.285 154.407 516.048 154.852C516.874 155.297 518.337 155.52 520.436 155.52C520.564 155.52 520.627 155.711 520.627 156.092C520.627 156.474 520.564 156.665 520.436 156.665C518.719 156.665 517.351 156.633 516.334 156.569L510.039 156.474L504.125 156.569C503.108 156.633 501.645 156.665 499.737 156.665ZM555.648 157.809C551.198 157.809 547.35 156.792 544.106 154.757C540.863 152.658 538.383 149.797 536.666 146.172C534.949 142.484 534.091 138.35 534.091 133.771C534.091 131.355 534.314 129.034 534.758 126.808C535.775 120.958 537.874 115.68 541.054 110.974C544.297 106.268 548.241 102.612 552.882 100.004C557.589 97.3333 562.579 95.9979 567.858 95.9979C572.437 95.9979 576.38 97.0153 579.686 99.0503C582.992 101.085 585.505 103.915 587.222 107.54C589.002 111.101 589.893 115.171 589.893 119.749C589.893 122.23 589.669 124.582 589.225 126.808C588.143 132.977 585.919 138.414 582.548 143.119C579.177 147.762 575.107 151.386 570.338 153.994C565.569 156.537 560.671 157.809 555.648 157.809ZM559.75 155.329C564.582 155.329 568.812 153.262 572.437 149.129C576.061 144.932 578.541 139.177 579.877 131.864C580.449 128.684 580.735 125.6 580.735 122.611C580.735 117.969 580.068 113.804 578.732 110.115C577.46 106.427 575.552 103.534 573.009 101.435C570.529 99.3365 567.572 98.2872 564.138 98.2872C559.241 98.2872 554.981 100.418 551.356 104.678C547.731 108.875 545.283 114.567 544.011 121.753C543.439 124.805 543.152 127.826 543.152 130.814C543.152 135.393 543.788 139.558 545.06 143.31C546.396 146.999 548.303 149.924 550.784 152.086C553.264 154.248 556.253 155.329 559.75 155.329Z" fill="white"/>
</svg>
