<svg width="32" height="24" viewBox="0 0 32 24" fill="none" xmlns="http://www.w3.org/2000/svg">
<path d="M0.495 17C0.405 17 0.33 16.97 0.27 16.91C0.21 16.84 0.18 16.765 0.18 16.685C0.18 16.635 0.185 16.59 0.195 16.55L3.765 6.905C3.795 6.795 3.855 6.7 3.945 6.62C4.035 6.54 4.16 6.5 4.32 6.5H6.24C6.4 6.5 6.525 6.54 6.615 6.62C6.705 6.7 6.765 6.795 6.795 6.905L10.365 16.55C10.375 16.59 10.38 16.635 10.38 16.685C10.38 16.765 10.35 16.84 10.29 16.91C10.23 16.97 10.155 17 10.065 17H8.505C8.355 17 8.245 16.965 8.175 16.895C8.105 16.825 8.06 16.76 8.04 16.7L7.395 15.02H3.165L2.52 16.7C2.5 16.76 2.455 16.825 2.385 16.895C2.315 16.965 2.205 17 2.055 17H0.495ZM3.72 13.085H6.825L5.28 8.765L3.72 13.085ZM15.6218 17.15C14.6818 17.15 13.8818 16.995 13.2218 16.685C12.5718 16.365 12.0668 15.905 11.7068 15.305C11.3468 14.695 11.1468 13.955 11.1068 13.085C11.0968 12.675 11.0918 12.235 11.0918 11.765C11.0918 11.295 11.0968 10.845 11.1068 10.415C11.1468 9.555 11.3468 8.825 11.7068 8.225C12.0768 7.615 12.5918 7.15 13.2518 6.83C13.9118 6.51 14.7018 6.35 15.6218 6.35C16.2918 6.35 16.9018 6.435 17.4518 6.605C18.0018 6.775 18.4768 7.02 18.8768 7.34C19.2768 7.66 19.5868 8.035 19.8068 8.465C20.0268 8.895 20.1468 9.375 20.1668 9.905C20.1668 9.995 20.1318 10.07 20.0618 10.13C20.0018 10.19 19.9268 10.22 19.8368 10.22H18.1268C18.0068 10.22 17.9118 10.19 17.8418 10.13C17.7718 10.07 17.7168 9.97 17.6768 9.83C17.5268 9.24 17.2768 8.835 16.9268 8.615C16.5768 8.395 16.1418 8.285 15.6218 8.285C15.0018 8.285 14.5118 8.455 14.1518 8.795C13.7918 9.135 13.5968 9.7 13.5668 10.49C13.5368 11.31 13.5368 12.15 13.5668 13.01C13.5968 13.8 13.7918 14.365 14.1518 14.705C14.5118 15.045 15.0018 15.215 15.6218 15.215C16.1418 15.215 16.5768 15.105 16.9268 14.885C17.2868 14.655 17.5368 14.25 17.6768 13.67C17.7168 13.52 17.7718 13.42 17.8418 13.37C17.9118 13.31 18.0068 13.28 18.1268 13.28H19.8368C19.9268 13.28 20.0018 13.31 20.0618 13.37C20.1318 13.43 20.1668 13.505 20.1668 13.595C20.1468 14.125 20.0268 14.605 19.8068 15.035C19.5868 15.465 19.2768 15.84 18.8768 16.16C18.4768 16.48 18.0018 16.725 17.4518 16.895C16.9018 17.065 16.2918 17.15 15.6218 17.15ZM24.6185 17C24.4585 17 24.3285 16.96 24.2285 16.88C24.1385 16.79 24.0735 16.685 24.0335 16.565L20.8835 6.95C20.8735 6.9 20.8685 6.855 20.8685 6.815C20.8685 6.735 20.8985 6.665 20.9585 6.605C21.0185 6.535 21.0935 6.5 21.1835 6.5H22.7585C22.9085 6.5 23.0235 6.545 23.1035 6.635C23.1935 6.715 23.2485 6.79 23.2685 6.86L25.6085 14.195L27.9335 6.86C27.9635 6.79 28.0185 6.715 28.0985 6.635C28.1785 6.545 28.2935 6.5 28.4435 6.5H30.0185C30.1085 6.5 30.1835 6.535 30.2435 6.605C30.3035 6.665 30.3335 6.735 30.3335 6.815C30.3335 6.855 30.3285 6.9 30.3185 6.95L27.1685 16.565C27.1385 16.685 27.0735 16.79 26.9735 16.88C26.8835 16.96 26.7535 17 26.5835 17H24.6185Z" fill="url(#paint0_linear_5_245)"/>
<defs>
<linearGradient id="paint0_linear_5_245" x1="0.0767619" y1="-0.245882" x2="37.7915" y2="7.76054" gradientUnits="userSpaceOnUse">
<stop stop-color="#FFA2C3"/>
<stop offset="1" stop-color="#FF77B8"/>
</linearGradient>
</defs>
</svg>
